:version 1.10
:name ASF
:units
  mass 1
  length 1
  angle deg
:documentation
  ASF file generated by Kaydara
:root
  axis xyz
  order  tx ty tz rx ry rz
  position 0 0 0
  orientation 0 0 0
:bonedata
  begin
    id 1
    name RightUpLegDummy
    direction -1 2.30186e-007 8.31532e-007
    length 4.04083
    axis 0 0 0 xyz
  end
  begin
    id 2
    name RightUpLeg
    direction -0.000919234 -0.999985 0.00544864
    length 17.4221
    axis -3.80308 -0.00076134 -0.0523649 xyz
    dof rx ry rz
  end
  begin
    id 3
    name RightLeg
    direction -0.000919271 -0.999984 -0.00555045
    length 17.1239
    axis 4.00314 0.0181274 -0.183583 xyz
    dof rx ry rz
  end
  begin
    id 4
    name RightFoot
    direction -2.57843e-005 -4.04509e-007 1
    length 6.72091
    axis 8.18909e-005 -0.122003 -0.403008 xyz
    dof rx ry rz
  end
  begin
    id 5
    name RightToes
    direction 0.00116825 -0.014069 0.9999
    length 3.85082
    axis 0.000514414 0.540638 -0.356797 xyz
    dof rx ry rz
  end
  begin
    id 6
    name SpineDummy
    direction 0.0168869 0.966876 -0.254689
    length 6.99894
    axis 0 0 0 xyz
  end
  begin
    id 7
    name Spine
    direction -0.0132008 0.999903 0.00446247
    length 11.1999
    axis -0.00148109 0.00725429 0.756411 xyz
    dof rx ry rz
  end
  begin
    id 8
    name Spine1
    direction 0 0 0
    length 0
    axis -0.000934958 0.0245693 1.46543 xyz
    dof rx ry rz
  end
  begin
    id 9
    name HEadDummy
    direction -0.0255732 0.999672 0.00128215
    length 3.43865
    axis -0.000934958 0.0245693 1.46543 xyz
  end
  begin
    id 10
    name HEad
    direction -0.0472656 0.980052 0.19304
    length 5.12695
    axis -0.000934954 0.0245693 1.46543 xyz
    dof rx ry rz
  end
  begin
    id 11
    name LeftShoulder1Dummy
    direction 0.953098 0.301717 -0.023914
    length 3.68488
    axis -0.000934958 0.0245693 1.46543 xyz
  end
  begin
    id 12
    name LeftShoulder1
    direction 0.962466 0.271167 0.0112566
    length 3.13809
    axis -0.000934958 0.0245693 1.46543 xyz
    dof rx ry rz
  end
  begin
    id 13
    name LeftArm
    direction 0.999943 0.00455037 -0.00961766
    length 11.3419
    axis -23.1648 0.685459 1.22814 xyz
    dof rx ry rz
  end
  begin
    id 14
    name LeftForeArm
    direction 0.999332 0.0131969 0.0340885
    length 8.70632
    axis -9.90633 0.618216 0.0826942 xyz
    dof rx ry rz
  end
  begin
    id 15
    name LeftHand
    direction 0.994373 -0.0366703 0.0993905
    length 5.32135
    axis 0.00675269 0.680415 0.445699 xyz
    dof rx ry rz
  end
  begin
    id 16
    name RightShoulderDummy
    direction -0.967298 0.252589 -0.0230903
    length 3.68488
    axis -0.000934958 0.0245693 1.46543 xyz
  end
  begin
    id 17
    name RightShoulder
    direction -0.975062 0.221602 0.0120823
    length 3.13809
    axis 0.216257 0.0246515 1.45863 xyz
    dof rx ry rz
  end
  begin
    id 18
    name RightArm
    direction -0.99886 -0.00851186 -0.0469687
    length 10.3947
    axis -23.196 0.23503 -0.532632 xyz
    dof rx ry rz
  end
  begin
    id 19
    name RightForeArm
    direction -0.99909 0.00114866 0.0426317
    length 8.68355
    axis -9.91764 -0.134943 0.610517 xyz
    dof rx ry rz
  end
  begin
    id 20
    name RightHand
    direction -0.992888 -0.0489538 0.10852
    length 5.28593
    axis -0.00275396 -0.197403 0.246414 xyz
    dof rx ry rz
  end
  begin
    id 21
    name LeftUpLegDummy
    direction 1 -2.30186e-007 -8.31532e-007
    length 4.04083
    axis 0 0 0 xyz
  end
  begin
    id 22
    name LeftUpLeg
    direction -0.000920097 -1 2.79241e-006
    length 17.4221
    axis -3.48782 0.00143434 -0.0532288 xyz
    dof rx ry rz
  end
  begin
    id 23
    name LeftLeg
    direction -0.000920097 -1 2.7912e-006
    length 17.1239
    axis 3.68162 -0.00806512 -0.0529896 xyz
    dof rx ry rz
  end
  begin
    id 24
    name LeftFoot
    direction -2.57845e-005 -3.987e-007 1
    length 6.72091
    axis 3.02372e-005 -0.00147829 -0.214229 xyz
    dof rx ry rz
  end
  begin
    id 25
    name LeftToes
    direction 0.00813577 -0.00488255 0.999955
    length 3.85048
    axis 3.89895e-005 -0.0014783 -0.214229 xyz
    dof rx ry rz
  end
:hierarchy
  begin
    root RightUpLegDummy SpineDummy LeftUpLegDummy
    RightUpLegDummy RightUpLeg
    RightUpLeg RightLeg
    RightLeg RightFoot
    RightFoot RightToes
    SpineDummy Spine
    Spine Spine1
    Spine1 HEadDummy LeftShoulder1Dummy RightShoulderDummy
    HEadDummy HEad
    LeftShoulder1Dummy LeftShoulder1
    LeftShoulder1 LeftArm
    LeftArm LeftForeArm
    LeftForeArm LeftHand
    RightShoulderDummy RightShoulder
    RightShoulder RightArm
    RightArm RightForeArm
    RightForeArm RightHand
    LeftUpLegDummy LeftUpLeg
    LeftUpLeg LeftLeg
    LeftLeg LeftFoot
    LeftFoot LeftToes
  end

:SAMPLES-PER-SECOND 30
:FULLY-SPECIFIED
:DEGREES
135
root  -32.7156 34.6843 8.02351 -168.785 83.2131 -170.065
RightUpLeg  5.83629 -9.91969 -3.33985
RightLeg  4.00139 -3.42934 -0.017801
RightFoot  2.7044 0.0134944 0.00749328
RightToes  -25.2722 -0.111289 -0.217148
Spine  -4.83849 1.05406 -0.573089
Spine1  -9.33135 2.30217 -0.326206
HEad  -90.1691 -4.99059 4.68889
LeftShoulder1  -1.94126e-019 -3.10601e-018 -2.51263e-017
LeftArm  -6.95835 25.5164 -75.9951
LeftForeArm  84.4841 -77.9558 -110.118
LeftHand  0.0948455 8.06068 5.65607
RightShoulder  -4.96962e-017 0 -2.36833e-017
RightArm  -20.3838 -27.6586 73.429
RightForeArm  132.822 77.6185 127.486
RightHand  0.0022937 -9.30072 -1.50697
LeftUpLeg  4.64731 0.873715 1.78469
LeftLeg  9.70216 18.1305 1.87837
LeftFoot  -1.65601 -0.00769685 -0.371013
LeftToes  -15.645 1.83942e-006 5.51297e-008
136
root  -32.633 34.6654 7.99338 -169.242 82.7677 -170.348
RightUpLeg  6.10954 -9.95942 -3.33534
RightLeg  4.23147 -3.83976 -0.0353795
RightFoot  2.48376 0.0139334 0.00353495
RightToes  -25.1562 -0.111785 -0.217652
Spine  -4.92997 0.949899 -0.691374
Spine1  -9.50794 2.07949 -0.585262
HEad  -89.5096 -4.94635 3.91181
LeftShoulder1  -1.94126e-019 -3.10601e-018 -2.51263e-017
LeftArm  -6.23204 25.4805 -75.4122
LeftForeArm  90.087 -77.4865 -115.533
LeftHand  0.0742733 7.78292 5.28304
RightShoulder  -4.96962e-017 0 -2.36833e-017
RightArm  -19.4956 -27.5418 73.5121
RightForeArm  137.021 77.1195 130.701
RightHand  -0.0158769 -8.72566 -1.05458
LeftUpLeg  4.81742 0.631552 1.82152
LeftLeg  9.87242 17.9447 1.91272
LeftFoot  -1.88917 -0.00992877 -0.440641
LeftToes  -15.5992 1.83942e-006 5.51297e-008
137
root  -32.5605 34.6579 7.95542 -170.032 82.369 -171.053
RightUpLeg  6.36543 -10.1155 -3.42455
RightLeg  4.28744 -4.07988 -0.041601
RightFoot  2.39971 0.0143948 -0.000474411
RightToes  -25.1553 -0.112295 -0.218162
Spine  -5.09739 0.897466 -0.777355
Spine1  -9.84393 1.95264 -0.761198
HEad  -88.7316 -5.14113 2.68483
LeftShoulder1  -1.94126e-019 -3.10601e-018 -2.51263e-017
LeftArm  -5.99135 25.8404 -74.9852
LeftForeArm  94.5526 -77.0576 -119.537
LeftHand  0.0611053 7.59825 5.01027
RightShoulder  -4.96962e-017 0 -2.36833e-017
RightArm  -19.2254 -27.8444 73.6862
RightForeArm  141.14 76.4585 134.158
RightHand  -0.0216068 -8.26564 -0.902396
LeftUpLeg  5.11089 0.489075 1.79784
LeftLeg  9.5783 17.6764 1.79488
LeftFoot  -1.90153 -0.0098977 -0.434855
LeftToes  -15.5494 1.83942e-006 5.51297e-008
138
root  -32.4983 34.657 7.91243 -170.62 82.0936 -171.648
RightUpLeg  6.55538 -10.3644 -3.56153
RightLeg  4.22097 -4.08911 -0.0369645
RightFoot  2.44117 0.0149215 -0.00528488
RightToes  -25.2824 -0.112821 -0.218679
Spine  -5.20657 0.862053 -0.868923
Spine1  -10.07 1.8559 -0.932454
HEad  -88.9517 -5.35963 1.81272
LeftShoulder1  -1.94126e-019 -3.10601e-018 -2.51263e-017
LeftArm  -6.01465 26.5244 -74.3504
LeftForeArm  98.2025 -76.522 -123.39
LeftHand  0.0451636 7.36182 4.64021
RightShoulder  -4.96962e-017 0 -2.36833e-017
RightArm  -19.0774 -28.3392 73.8376
RightForeArm  144.218 75.6655 137.417
RightHand  -0.0117405 -8.41865 -1.24671
LeftUpLeg  5.47524 0.348633 1.73297
LeftLeg  8.96232 17.5238 1.59286
LeftFoot  -1.76823 -0.00847428 -0.387586
LeftToes  -15.5976 1.83942e-006 5.51297e-008
139
root  -32.4456 34.6552 7.86228 -170.941 82.0564 -172.104
RightUpLeg  6.59806 -10.5089 -3.71132
RightLeg  4.08653 -3.96473 -0.0265464
RightFoot  2.48954 0.0152874 -0.00780253
RightToes  -25.4592 -0.113935 -0.219201
Spine  -5.31125 0.819696 -0.953755
Spine1  -10.2937 1.74066 -1.07902
HEad  -90.4179 -5.2959 1.70058
LeftShoulder1  -1.94126e-019 -3.10601e-018 -2.51263e-017
LeftArm  -5.67939 27.7251 -73.2035
LeftForeArm  101.761 -75.8438 -127.37
LeftHand  0.0266088 6.99332 4.27505
RightShoulder  -4.96962e-017 0 -2.36833e-017
RightArm  -18.3596 -29.0455 73.7579
RightForeArm  146.721 74.8093 140.354
RightHand  -0.00735605 -8.5655 -1.37074
LeftUpLeg  5.79777 0.272279 1.58673
LeftLeg  8.19505 17.6175 1.36744
LeftFoot  -1.551 -0.00655665 -0.322842
LeftToes  -15.6417 1.83942e-006 5.51297e-008
140
root  -32.4027 34.6583 7.80842 -170.923 82.244 -172.341
RightUpLeg  6.52132 -10.5722 -3.84996
RightLeg  3.82657 -3.73773 -0.00808435
RightFoot  2.64973 0.0155858 -0.00950165
RightToes  -25.5612 -0.115888 -0.219963
Spine  -5.48667 0.791403 -1.01012
Spine1  -10.6663 1.65069 -1.15107
HEad  -92.1924 -5.12099 1.95967
LeftShoulder1  -1.94126e-019 -3.10601e-018 -2.51263e-017
LeftArm  -4.19882 29.3341 -71.4665
LeftForeArm  105.345 -75.2417 -130.551
LeftHand  0.0150073 6.67379 4.16609
RightShoulder  -4.96962e-017 0 -2.36833e-017
RightArm  -16.811 -30.0001 73.164
RightForeArm  149.015 74.025 142.751
RightHand  -0.00781893 -8.49418 -1.37095
LeftUpLeg  6.05819 0.240793 1.39995
LeftLeg  7.34991 17.8805 1.12663
LeftFoot  -1.31139 -0.00476622 -0.254919
LeftToes  -15.5128 1.83942e-006 5.51297e-008
141
root  -32.3782 34.6631 7.74523 -170.515 82.5373 -172.511
RightUpLeg  6.13694 -10.7471 -3.9816
RightLeg  3.43114 -3.30538 0.0156584
RightFoot  2.93964 0.015853 -0.0110373
RightToes  -26.0003 -0.118244 -0.222491
Spine  -5.70744 0.742369 -1.02208
Spine1  -11.1286 1.51518 -1.1036
HEad  -94.9418 -4.64157 2.60723
LeftShoulder1  -1.94126e-019 -3.10601e-018 -2.51263e-017
LeftArm  -1.82343 31.2211 -69.411
LeftForeArm  108.131 -74.8818 -132.413
LeftHand  -0.00171125 6.14444 4.13358
RightShoulder  -4.96962e-017 0 -2.36833e-017
RightArm  -14.4054 -31.0601 72.0157
RightForeArm  151.389 73.1196 145.177
RightHand  -0.0100755 -8.44178 -1.30209
LeftUpLeg  5.9929 0.300321 1.18337
LeftLeg  6.47755 18.1597 0.87109
LeftFoot  -1.07841 -0.00328032 -0.187018
LeftToes  -15.1492 1.83942e-006 5.51297e-008
